<svg xmlns="http://www.w3.org/2000/svg" viewBox="0 0 280 80" width="280" height="80">
  <defs>
    <!-- Gradient for the traveling light effect -->
    <linearGradient id="lightGradient" x1="0%" y1="0%" x2="100%" y2="0%">
      <stop offset="0%" style="stop-color:#8ec63f;stop-opacity:0.3" />
      <stop offset="50%" style="stop-color:#ffffff;stop-opacity:1" />
      <stop offset="100%" style="stop-color:#8ec63f;stop-opacity:0.3" />

      <!-- Animate the gradient offset to create traveling light effect -->
      <animate attributeName="x1" values="-100%;200%" dur="2s" repeatCount="1" />
      <animate attributeName="x2" values="0%;300%" dur="2s" repeatCount="1" />
    </linearGradient>
  </defs>

  <!-- Blue "N" -->
  <text x="0" y="60" font-family="Arial, sans-serif" font-size="56" font-weight="bold" fill="#0760ad">N</text>

  <!-- Green "O" with varying thickness - clean solid shape -->
  <g transform="rotate(15 70 40)">
    <path d="
      M 47,40
      A 23,33 0 0,1 70,7
      A 23,33 0 0,1 93,40
      A 23,33 0 0,1 70,73
      A 23,33 0 0,1 47,40
      Z
      M 53,40
      A 17,23 0 0,0 70,63
      A 17,23 0 0,0 87,40
      A 17,23 0 0,0 70,17
      A 17,23 0 0,0 53,40
      Z
    " fill="#8ec63f" fill-rule="evenodd"/>
  </g>

  <!-- Animated light overlay -->
  <g transform="rotate(15 70 40)">
    <ellipse cx="70" cy="40" rx="21.5" ry="28" fill="none" stroke="url(#lightGradient)" stroke-width="10" opacity="0.8">
      <animate attributeName="opacity" values="0;1;1;0" dur="2s" repeatCount="1" />
    </ellipse>
  </g>

  <!-- Blue "REAS" -->
  <text x="95" y="60" font-family="Arial, sans-serif" font-size="56" font-weight="bold" fill="#0760ad">REAS</text>
</svg>
